# xmcd
# 
# Track frame offsets:
#     150
#     19516
#     43710
#     61314
#     82056
#     103497
#     122850
#     146437
#     176338
#     204247
#     222233
#     240719
#     265813
#     292548
# 
# Disc length: 4344
# 
# Revision: 1
# Processed by: cddbd v1.5.2PL0 Copyright (c) Steve Scherf et al.
# Submitted via: fre:ac v1.0.31
# 
DISCID=c510f60e
DTITLE=Duran Duran - Live 2011- A Diamond In The Mind
DYEAR=2011
DGENRE=Rock/Pop
TTITLE0=Before the Rain
TTITLE1=Planet Earth
TTITLE2=A View to a Kill
TTITLE3=All you need is now
TTITLE4=Come Undone
TTITLE5=Blame the Machines
TTITLE6=The Reflex
TTITLE7=Girl Panic!
TTITLE8=Ordinary World
TTITLE9=Notorious
TTITLE10=Hungry like a Wolf
TTITLE11=(Reach up for the) Sunrise
TTITLE12=Wild Boys/ Relax
TTITLE13=Rio
EXTD=
EXTT0=
EXTT1=
EXTT2=
EXTT3=
EXTT4=
EXTT5=
EXTT6=
EXTT7=
EXTT8=
EXTT9=
EXTT10=
EXTT11=
EXTT12=
EXTT13=
PLAYORDER=
